# xmcd
#
# Track frame offsets:
#  150
#  16995
#  36109
#  51483
#  67820
#  87266
#  102526
#  117895
#  133065
#
# Disc length: 2028 seconds
#
# Revision: 0
# Processed by: cddbd v1.4PL0 Copyright (c) Steve Scherf et al.
# Submitted via: AltoMP3_Maker 3.0
#
DISCID=7707ea09
DTITLE=Jeff Twardzik - Half Truth and Half Life
DYEAR=1900
DGENRE=
TTITLE0=How The River Flows
TTITLE1=Holly Won't You Let Your Hair Down
TTITLE2=What Do You Mean (Duet - Michelle Nagy)
TTITLE3=We Were Just Lonely
TTITLE4=She Likes The Rain
TTITLE5=Keeping You In My Mind
TTITLE6=8 Seconds
TTITLE7=Headed South
TTITLE8=Ashlin's Song
EXTD=
EXTT0=
EXTT1=
EXTT2=
EXTT3=
EXTT4=
EXTT5=
EXTT6=
EXTT7=
EXTT8=
PLAYORDER=
